# xmcd
#
# Track frame offsets: 
#        150
#        26142
#        49235
#        71058
#        90134
#        113365
#        128345
#        144373
#        164780
#        181150
#        203485
#
# Disc length: 2985 seconds
#
# Revision: 0
# Processed by: cddbd v1.5.2PL0 Copyright (c) Steve Scherf et al.
# Submitted via: ExactAudioCopyFreeDBPlugin 1.0
#
DISCID=880ba70b
DTITLE=Daniel Blanc and Co - Uniquement Blues
DYEAR=2014
DGENRE=Blues
TTITLE0=Rêve de gosse
TTITLE1=Le blues du cuisinier
TTITLE2=Le blues sans un flouze
TTITLE3=Chante  Français
TTITLE4=Terre natale
TTITLE5=Blues en Fa...
TTITLE6=Le blues de la métropole
TTITLE7=Monnaie courante
TTITLE8=Légion d'honneur
TTITLE9=Le blues d'un soir
TTITLE10=Camargue blues
EXTD=
EXTT0=
EXTT1=
EXTT2=
EXTT3=
EXTT4=
EXTT5=
EXTT6=
EXTT7=
EXTT8=
EXTT9=
EXTT10=
PLAYORDER=
